<svg xmlns="http://www.w3.org/2000/svg" xmlns:xlink="http://www.w3.org/1999/xlink" width="500" zoomAndPan="magnify" viewBox="0 0 375 374.999991" height="500" preserveAspectRatio="xMidYMid meet" version="1.0"><defs><g/><clipPath id="7729c0bd25"><path d="M 20.160156 166.308594 L 354.839844 166.308594 L 354.839844 206.523438 L 20.160156 206.523438 Z M 20.160156 166.308594 " clip-rule="nonzero"/></clipPath></defs><g fill="#ded9d3" fill-opacity="1"><g transform="translate(90.787851, 278.357713)"><g><path d="M 124.558594 4.675781 C 187.65625 4.675781 235.328125 -32.71875 235.328125 -93.476562 C 235.328125 -154.003906 187.65625 -191.628906 124.558594 -191.628906 C 61.460938 -191.628906 14.023438 -154.003906 14.023438 -93.476562 C 14.023438 -32.71875 61.460938 4.675781 124.558594 4.675781 Z M 124.558594 -0.234375 C 79.222656 -0.234375 56.554688 -44.167969 56.554688 -93.476562 C 56.554688 -142.550781 79.222656 -186.71875 124.558594 -186.71875 C 169.894531 -186.71875 192.796875 -142.550781 192.796875 -93.476562 C 192.796875 -44.167969 169.894531 -0.234375 124.558594 -0.234375 Z M 124.558594 -0.234375 "/></g></g></g><g fill="#231f20" fill-opacity="1"><g transform="translate(39.474618, 278.267975)"><g><path d="M 16.359375 0 L 26.40625 0 C 24.539062 -17.761719 23.835938 -28.277344 23.835938 -50.011719 L 23.835938 -175.039062 L 102.125 4.675781 L 109.371094 4.675781 L 182.046875 -175.738281 L 182.046875 -50.011719 C 182.046875 -28.277344 181.347656 -17.761719 179.710938 0 L 223.878906 0 C 222.011719 -17.761719 221.542969 -28.277344 221.542969 -50.011719 L 221.542969 -136.945312 C 221.542969 -158.679688 222.011719 -169.195312 223.878906 -186.957031 L 181.582031 -186.957031 L 124.09375 -48.140625 L 62.398438 -186.957031 L 16.359375 -186.957031 C 18.226562 -169.195312 18.929688 -158.679688 18.929688 -136.945312 L 18.929688 -50.011719 C 18.929688 -28.277344 18.226562 -17.761719 16.359375 0 Z M 16.359375 0 "/></g></g></g><g clip-path="url(#7729c0bd25)"><path fill="#fbfaf9" d="M 20.160156 166.308594 L 354.894531 166.308594 L 354.894531 206.523438 L 20.160156 206.523438 Z M 20.160156 166.308594 " fill-opacity="1" fill-rule="nonzero"/></g><g fill="#231f20" fill-opacity="1"><g transform="translate(67.47197, 190.540607)"><g><path d="M 10.3125 0 L 8.953125 0 L 8.953125 -6.484375 L 6.203125 -0.90625 L 5.25 -0.90625 L 2.515625 -6.484375 L 2.515625 0 L 1.140625 0 L 1.140625 -8.671875 L 2.875 -8.671875 L 5.734375 -2.90625 L 8.59375 -8.671875 L 10.3125 -8.671875 Z M 10.3125 0 "/></g></g></g><g fill="#231f20" fill-opacity="1"><g transform="translate(88.852739, 190.540607)"><g><path d="M 1.75 -7.4375 C 2.632812 -8.28125 3.722656 -8.703125 5.015625 -8.703125 C 6.316406 -8.703125 7.40625 -8.28125 8.28125 -7.4375 C 9.164062 -6.601562 9.609375 -5.566406 9.609375 -4.328125 C 9.609375 -3.097656 9.164062 -2.054688 8.28125 -1.203125 C 7.40625 -0.359375 6.316406 0.0625 5.015625 0.0625 C 3.722656 0.0625 2.632812 -0.359375 1.75 -1.203125 C 0.863281 -2.054688 0.421875 -3.097656 0.421875 -4.328125 C 0.421875 -5.566406 0.863281 -6.601562 1.75 -7.4375 Z M 5.03125 -7.390625 C 4.164062 -7.390625 3.425781 -7.09375 2.8125 -6.5 C 2.207031 -5.914062 1.90625 -5.191406 1.90625 -4.328125 C 1.90625 -3.472656 2.210938 -2.742188 2.828125 -2.140625 C 3.441406 -1.546875 4.175781 -1.25 5.03125 -1.25 C 5.882812 -1.25 6.609375 -1.546875 7.203125 -2.140625 C 7.804688 -2.742188 8.109375 -3.472656 8.109375 -4.328125 C 8.109375 -5.191406 7.804688 -5.914062 7.203125 -6.5 C 6.609375 -7.09375 5.882812 -7.390625 5.03125 -7.390625 Z M 5.03125 -7.390625 "/></g></g></g><g fill="#231f20" fill-opacity="1"><g transform="translate(108.809028, 190.540607)"><g><path d="M 8.65625 0 L 7.203125 0 L 7.203125 -3.59375 L 2.609375 -3.59375 L 2.609375 0 L 1.140625 0 L 1.140625 -8.671875 L 2.609375 -8.671875 L 2.609375 -4.90625 L 7.203125 -4.90625 L 7.203125 -8.671875 L 8.65625 -8.671875 Z M 8.65625 0 "/></g></g></g><g fill="#231f20" fill-opacity="1"><g transform="translate(128.529972, 190.540607)"><g><path d="M 6.734375 -1.953125 L 2.359375 -1.953125 L 1.53125 0 L 0.015625 0 L 3.84375 -8.671875 L 5.34375 -8.671875 L 9.125 0 L 7.578125 0 Z M 6.1875 -3.265625 L 4.546875 -7.109375 L 2.90625 -3.265625 Z M 6.1875 -3.265625 "/></g></g></g><g fill="#231f20" fill-opacity="1"><g transform="translate(147.594409, 190.540607)"><g><path d="M 10.3125 0 L 8.953125 0 L 8.953125 -6.484375 L 6.203125 -0.90625 L 5.25 -0.90625 L 2.515625 -6.484375 L 2.515625 0 L 1.140625 0 L 1.140625 -8.671875 L 2.875 -8.671875 L 5.734375 -2.90625 L 8.59375 -8.671875 L 10.3125 -8.671875 Z M 10.3125 0 "/></g></g></g><g fill="#231f20" fill-opacity="1"><g transform="translate(168.975175, 190.540607)"><g><path d="M 7.328125 -7.359375 L 2.609375 -7.359375 L 2.609375 -5.015625 L 6.84375 -5.015625 L 6.84375 -3.703125 L 2.609375 -3.703125 L 2.609375 -1.3125 L 7.484375 -1.3125 L 7.484375 0 L 1.140625 0 L 1.140625 -8.671875 L 7.328125 -8.671875 Z M 7.328125 -7.359375 "/></g></g></g><g fill="#231f20" fill-opacity="1"><g transform="translate(187.023891, 190.540607)"><g><path d="M 1.140625 -8.671875 L 4.703125 -8.671875 C 5.992188 -8.671875 7.0625 -8.257812 7.90625 -7.4375 C 8.757812 -6.625 9.1875 -5.585938 9.1875 -4.328125 C 9.1875 -3.078125 8.757812 -2.039062 7.90625 -1.21875 C 7.050781 -0.40625 5.96875 0 4.65625 0 L 1.140625 0 Z M 2.609375 -7.359375 L 2.609375 -1.3125 L 4.734375 -1.3125 C 5.585938 -1.3125 6.296875 -1.59375 6.859375 -2.15625 C 7.421875 -2.726562 7.703125 -3.453125 7.703125 -4.328125 C 7.703125 -5.203125 7.410156 -5.925781 6.828125 -6.5 C 6.242188 -7.070312 5.523438 -7.359375 4.671875 -7.359375 Z M 2.609375 -7.359375 "/></g></g></g><g fill="#231f20" fill-opacity="1"><g transform="translate(206.546641, 190.540607)"><g/></g></g><g fill="#231f20" fill-opacity="1"><g transform="translate(219.665414, 190.540607)"><g><path d="M 1.75 -7.4375 C 2.632812 -8.28125 3.722656 -8.703125 5.015625 -8.703125 C 6.316406 -8.703125 7.40625 -8.28125 8.28125 -7.4375 C 9.164062 -6.601562 9.609375 -5.566406 9.609375 -4.328125 C 9.609375 -3.097656 9.164062 -2.054688 8.28125 -1.203125 C 7.40625 -0.359375 6.316406 0.0625 5.015625 0.0625 C 3.722656 0.0625 2.632812 -0.359375 1.75 -1.203125 C 0.863281 -2.054688 0.421875 -3.097656 0.421875 -4.328125 C 0.421875 -5.566406 0.863281 -6.601562 1.75 -7.4375 Z M 5.03125 -7.390625 C 4.164062 -7.390625 3.425781 -7.09375 2.8125 -6.5 C 2.207031 -5.914062 1.90625 -5.191406 1.90625 -4.328125 C 1.90625 -3.472656 2.210938 -2.742188 2.828125 -2.140625 C 3.441406 -1.546875 4.175781 -1.25 5.03125 -1.25 C 5.882812 -1.25 6.609375 -1.546875 7.203125 -2.140625 C 7.804688 -2.742188 8.109375 -3.472656 8.109375 -4.328125 C 8.109375 -5.191406 7.804688 -5.914062 7.203125 -6.5 C 6.609375 -7.09375 5.882812 -7.390625 5.03125 -7.390625 Z M 5.03125 -7.390625 "/></g></g></g><g fill="#231f20" fill-opacity="1"><g transform="translate(239.6217, 190.540607)"><g><path d="M 3.984375 -8.734375 C 5.109375 -8.734375 6.125 -8.4375 7.03125 -7.84375 L 6.421875 -6.546875 C 5.535156 -7.085938 4.6875 -7.359375 3.875 -7.359375 C 3.4375 -7.359375 3.09375 -7.28125 2.84375 -7.125 C 2.59375 -6.96875 2.46875 -6.742188 2.46875 -6.453125 C 2.46875 -6.160156 2.582031 -5.914062 2.8125 -5.71875 C 3.039062 -5.519531 3.328125 -5.367188 3.671875 -5.265625 C 4.023438 -5.171875 4.40625 -5.050781 4.8125 -4.90625 C 5.21875 -4.769531 5.59375 -4.617188 5.9375 -4.453125 C 6.28125 -4.296875 6.566406 -4.046875 6.796875 -3.703125 C 7.023438 -3.359375 7.140625 -2.941406 7.140625 -2.453125 C 7.140625 -1.691406 6.832031 -1.082031 6.21875 -0.625 C 5.613281 -0.175781 4.828125 0.046875 3.859375 0.046875 C 3.203125 0.046875 2.5625 -0.0703125 1.9375 -0.3125 C 1.320312 -0.5625 0.785156 -0.898438 0.328125 -1.328125 L 0.953125 -2.59375 C 1.390625 -2.1875 1.867188 -1.875 2.390625 -1.65625 C 2.921875 -1.4375 3.421875 -1.328125 3.890625 -1.328125 C 4.398438 -1.328125 4.796875 -1.421875 5.078125 -1.609375 C 5.367188 -1.796875 5.515625 -2.050781 5.515625 -2.375 C 5.515625 -2.675781 5.394531 -2.925781 5.15625 -3.125 C 4.925781 -3.332031 4.640625 -3.484375 4.296875 -3.578125 C 3.953125 -3.671875 3.578125 -3.785156 3.171875 -3.921875 C 2.765625 -4.054688 2.390625 -4.195312 2.046875 -4.34375 C 1.703125 -4.5 1.410156 -4.742188 1.171875 -5.078125 C 0.941406 -5.421875 0.828125 -5.832031 0.828125 -6.3125 C 0.828125 -7.050781 1.113281 -7.640625 1.6875 -8.078125 C 2.269531 -8.515625 3.035156 -8.734375 3.984375 -8.734375 Z M 3.984375 -8.734375 "/></g></g></g><g fill="#231f20" fill-opacity="1"><g transform="translate(257.249262, 190.540607)"><g><path d="M 10.3125 0 L 8.953125 0 L 8.953125 -6.484375 L 6.203125 -0.90625 L 5.25 -0.90625 L 2.515625 -6.484375 L 2.515625 0 L 1.140625 0 L 1.140625 -8.671875 L 2.875 -8.671875 L 5.734375 -2.90625 L 8.59375 -8.671875 L 10.3125 -8.671875 Z M 10.3125 0 "/></g></g></g><g fill="#231f20" fill-opacity="1"><g transform="translate(278.630028, 190.540607)"><g><path d="M 6.734375 -1.953125 L 2.359375 -1.953125 L 1.53125 0 L 0.015625 0 L 3.84375 -8.671875 L 5.34375 -8.671875 L 9.125 0 L 7.578125 0 Z M 6.1875 -3.265625 L 4.546875 -7.109375 L 2.90625 -3.265625 Z M 6.1875 -3.265625 "/></g></g></g><g fill="#231f20" fill-opacity="1"><g transform="translate(297.694465, 190.540607)"><g><path d="M 8.65625 0 L 7.21875 0 L 2.609375 -6.21875 L 2.609375 0 L 1.140625 0 L 1.140625 -8.671875 L 2.578125 -8.671875 L 7.21875 -2.4375 L 7.21875 -8.671875 L 8.65625 -8.671875 Z M 8.65625 0 "/></g></g></g></svg>